SplineFontDB: 3.0
FontName: ttzr
FullName: ttzr
FamilyName: ttzr
Weight: Medium
Copyright: Created by Brendan Mahony with PfaEdit 1.0 (http://pfaedit.sf.net)
UComments: "2002-4-16: Created." 
Version: 001.000
ItalicAngle: 0
UnderlinePosition: -100
UnderlineWidth: 50
Ascent: 800
Descent: 200
LayerCount: 2
Layer: 0 0 "Back"  1
Layer: 1 0 "Fore"  0
NeedsXUIDChange: 1
FSType: 0
OS2Version: 0
OS2_WeightWidthSlopeOnly: 0
OS2_UseTypoMetrics: 0
CreationTime: 1197598084
ModificationTime: 1197598084
PfmFamily: 17
TTFWeight: 400
TTFWidth: 5
LineGap: 90
VLineGap: 0
Panose: 2 0 5 3 0 0 0 0 0 0
OS2TypoAscent: 0
OS2TypoAOffset: 1
OS2TypoDescent: 0
OS2TypoDOffset: 1
OS2TypoLinegap: 0
OS2WinAscent: 0
OS2WinAOffset: 1
OS2WinDescent: 0
OS2WinDOffset: 1
HheadAscent: 0
HheadAOffset: 1
HheadDescent: 0
HheadDOffset: 1
OS2Vendor: 'PfEd'
DEI: 91125
ShortTable: cvt  2
  33
  633
EndShort
Encoding: Custom
UnicodeInterp: none
NameList: Adobe Glyph List
DisplaySize: -48
AntiAlias: 1
FitToEm: 1
WinInfo: 0 16 11
BeginChars: 256 222

StartChar: bararrowleft
Encoding: 0 -1 0
Width: 964
Flags: W
HStem: 229 56<171 528 584 901>
VStem: 528 56<73 228 286 441>
LayerCount: 2
Fore
SplineSet
62 258 m 1
 258 52 l 1
 289 85 l 1
 170 229 l 1
 528 229 l 1
 528 72 l 5
 584 72 l 1
 584 229 l 1
 902 229 l 1
 902 285 l 1
 584 285 l 1
 584 442 l 1
 528 442 l 1
 528 285 l 1
 170 285 l 1
 289 429 l 1
 258 462 l 1
 62 258 l 1
EndSplineSet
EndChar

StartChar: bararrowright
Encoding: 1 -1 1
Width: 964
Flags: W
HStem: 229 56<63 380 436 793>
VStem: 380 56<73 228 286 441>
LayerCount: 2
Fore
SplineSet
902 258 m 1
 706 52 l 1
 675 85 l 1
 794 229 l 1
 436 229 l 5
 436 72 l 5
 380 72 l 5
 380 229 l 5
 62 229 l 1
 62 285 l 1
 380 285 l 5
 380 442 l 5
 436 442 l 5
 436 285 l 5
 794 285 l 1
 675 429 l 1
 706 462 l 1
 902 258 l 1
EndSplineSet
EndChar

StartChar: bararrowup
Encoding: 2 -1 2
Width: 534
Flags: W
HStem: 155 56<82 239 295 452>
VStem: 239 56<-163 155 211 569>
LayerCount: 2
Fore
SplineSet
268 677 m 5
 62 481 l 5
 95 450 l 5
 239 569 l 5
 239 211 l 5
 82 211 l 5
 82 155 l 5
 239 155 l 5
 239 -163 l 5
 295 -163 l 5
 295 155 l 5
 452 155 l 5
 452 211 l 5
 295 211 l 5
 295 569 l 5
 439 450 l 5
 472 481 l 5
 268 677 l 5
EndSplineSet
EndChar

StartChar: bararrowdown
Encoding: 3 -1 3
Width: 534
Flags: W
HStem: 303 56<82 239 295 452>
VStem: 239 56<-55 303 359 677>
LayerCount: 2
Fore
SplineSet
268 -163 m 1
 62 33 l 1
 95 64 l 1
 239 -55 l 1
 239 303 l 1
 82 303 l 1
 82 359 l 1
 239 359 l 1
 239 677 l 1
 295 677 l 1
 295 359 l 1
 452 359 l 1
 452 303 l 1
 295 303 l 1
 295 -55 l 1
 439 64 l 1
 472 33 l 5
 268 -163 l 1
EndSplineSet
EndChar

StartChar: dblbararrowleft
Encoding: 4 -1 4
Width: 964
Flags: W
HStem: 229 56<171 472 528 584 640 901>
VStem: 472 56<73 228 286 441> 584 56<73 228 286 441>
LayerCount: 2
Fore
SplineSet
528 285 m 1
 584 285 l 1
 584 442 l 1
 640 442 l 1
 640 285 l 1
 902 285 l 1
 902 229 l 1
 640 229 l 1
 640 72 l 1
 584 72 l 1
 584 229 l 1
 528 229 l 1
 528 72 l 5
 472 72 l 5
 472 229 l 1
 170 229 l 1
 289 85 l 1
 258 52 l 1
 62 258 l 1
 258 462 l 1
 289 429 l 1
 170 285 l 1
 472 285 l 1
 472 442 l 5
 528 442 l 5
 528 285 l 1
EndSplineSet
EndChar

StartChar: dblbararrowright
Encoding: 5 -1 5
Width: 964
Flags: W
HStem: 229 56<63 324 380 436 492 793>
VStem: 324 56<73 228 286 441> 436 56<73 228 286 441>
LayerCount: 2
Fore
SplineSet
436 285 m 1
 380 285 l 1
 380 442 l 1
 324 442 l 1
 324 285 l 1
 62 285 l 1
 62 229 l 1
 324 229 l 1
 324 72 l 1
 380 72 l 1
 380 229 l 1
 436 229 l 1
 436 72 l 5
 492 72 l 5
 492 229 l 1
 794 229 l 1
 675 85 l 1
 706 52 l 1
 902 258 l 1
 706 462 l 1
 675 429 l 1
 794 285 l 1
 492 285 l 1
 492 442 l 5
 436 442 l 5
 436 285 l 1
EndSplineSet
EndChar

StartChar: bararrowtailleft
Encoding: 6 -1 6
Width: 1093
Flags: W
HStem: 228 57<181 538 594 832>
VStem: 538 56<73 228 286 440>
LayerCount: 2
Fore
SplineSet
72 258 m 1
 268 52 l 1
 299 85 l 1
 180 229 l 1
 538 228 l 1
 538 72 l 1
 594 72 l 1
 594 228 l 1
 832 229 l 1
 1000 52 l 1
 1031 85 l 1
 912 229 l 1
 912 285 l 1
 1031 429 l 1
 1000 462 l 1
 832 285 l 1
 594 285 l 1
 594 441 l 1
 538 441 l 1
 538 285 l 1
 180 285 l 1
 299 429 l 5
 268 462 l 1
 72 258 l 1
EndSplineSet
EndChar

StartChar: bararrowtailright
Encoding: 7 -1 7
Width: 1093
Flags: W
HStem: 228 57<272 509 565 922>
VStem: 509 56<73 228 286 440>
LayerCount: 2
Fore
SplineSet
1031 258 m 1
 835 52 l 1
 804 85 l 1
 923 229 l 1
 565 228 l 1
 565 72 l 1
 509 72 l 1
 509 228 l 1
 271 229 l 1
 103 52 l 1
 72 85 l 1
 191 229 l 1
 191 285 l 1
 72 429 l 1
 103 462 l 1
 271 285 l 1
 509 285 l 1
 509 441 l 1
 565 441 l 1
 565 285 l 1
 923 285 l 1
 804 429 l 1
 835 462 l 1
 1031 258 l 1
EndSplineSet
EndChar

StartChar: dblbarartailleft
Encoding: 8 -1 8
Width: 1093
Flags: W
HStem: 228.271 56.729<181 482 538 594 650 832>
VStem: 482 56<73 228 286 440> 594 56<73 228 286 440>
LayerCount: 2
Fore
SplineSet
538 285 m 1
 594 285 l 1
 594 441 l 1
 650 441 l 1
 650 285 l 1
 832 285 l 1
 1000 462 l 1
 1031 429 l 1
 912 285 l 1
 912 229 l 1
 1031 85 l 1
 1000 52 l 1
 832 229 l 1
 650 228 l 1
 650 72 l 1
 594 72 l 1
 594 228 l 1
 538 228.135 l 1
 538 72 l 5
 482 72 l 5
 482 228.271 l 1
 180 229 l 1
 299 85 l 1
 268 52 l 1
 72 258 l 1
 268 462 l 1
 299 429 l 1
 180 285 l 1
 482 285 l 1
 482 441 l 5
 538 441 l 5
 538 285 l 1
EndSplineSet
EndChar

StartChar: dblbarartailright
Encoding: 9 -1 9
Width: 1093
Flags: W
HStem: 228 57<272 453 509 565 621 922>
VStem: 453 56<73 228 286 440> 565 56<73 228 286 440>
LayerCount: 2
Fore
SplineSet
565 285 m 1
 509 285 l 1
 509 441 l 1
 453 441 l 1
 453 285 l 1
 271 285 l 1
 103 462 l 1
 72 429 l 1
 191 285 l 1
 191 229 l 1
 72 85 l 1
 103 52 l 1
 271 229 l 1
 453 228 l 1
 453 72 l 1
 509 72 l 1
 509 228 l 1
 565 228.136 l 1
 565 72 l 5
 621 72 l 5
 621 228.271 l 1
 923 229 l 1
 804 85 l 1
 835 52 l 1
 1031 258 l 1
 835 462 l 1
 804 429 l 1
 923 285 l 1
 621 285 l 1
 621 441 l 5
 565 441 l 5
 565 285 l 1
EndSplineSet
EndChar

StartChar: dblarheadleft
Encoding: 10 -1 10
Width: 964
Flags: W
HStem: 229 56<171 238 321 901>
LayerCount: 2
Fore
SplineSet
902 229 m 1
 320 229 l 1
 439 85 l 1
 408 52 l 1
 238 229 l 1
 170 229 l 1
 289 85 l 1
 258 52 l 1
 62 256 l 1
 258 462 l 1
 289 429 l 1
 170 285 l 1
 240 285 l 1
 408 462 l 1
 439 429 l 1
 320 285 l 1
 902 285 l 1
 902 229 l 1
EndSplineSet
EndChar

StartChar: dblarheadright
Encoding: 11 -1 11
Width: 964
Flags: W
HStem: 229 56<63 643 726 793>
LayerCount: 2
Fore
SplineSet
62 229 m 1
 644 229 l 1
 525 85 l 1
 556 52 l 1
 726 229 l 1
 794 229 l 1
 675 85 l 1
 706 52 l 1
 902 256 l 1
 706 462 l 1
 675 429 l 1
 794 285 l 1
 724 285 l 1
 556 462 l 1
 525 429 l 1
 644 285 l 1
 62 285 l 1
 62 229 l 1
EndSplineSet
EndChar

StartChar: bardblarheadleft
Encoding: 12 -1 12
Width: 964
Flags: W
HStem: 229 56<171 238 321 586 642 901>
VStem: 586 56<73 228 286 440>
LayerCount: 2
Fore
SplineSet
902 229 m 1
 642 229 l 1
 642 72 l 1
 586 72 l 1
 586 229 l 1
 320 229 l 1
 439 85 l 1
 408 52 l 1
 238 229 l 1
 170 229 l 1
 289 85 l 1
 258 52 l 1
 62 256 l 1
 258 462 l 1
 289 429 l 1
 170 285 l 1
 240 285 l 1
 408 462 l 1
 439 429 l 1
 320 285 l 1
 586 285 l 1
 586 441 l 1
 642 441 l 1
 642 285 l 1
 902 285 l 1
 902 229 l 1
EndSplineSet
EndChar

StartChar: bardblarheadright
Encoding: 13 -1 13
Width: 964
Flags: W
HStem: 229 56<63 322 378 643 726 793>
VStem: 322 56<73 228 286 440>
LayerCount: 2
Fore
SplineSet
62 229 m 1
 322 229 l 1
 322 72 l 1
 378 72 l 1
 378 229 l 1
 644 229 l 1
 525 85 l 1
 556 52 l 1
 726 229 l 1
 794 229 l 1
 675 85 l 1
 706 52 l 1
 902 256 l 1
 706 462 l 1
 675 429 l 1
 794 285 l 1
 724 285 l 1
 556 462 l 1
 525 429 l 1
 644 285 l 1
 378 285 l 1
 378 441 l 1
 322 441 l 1
 322 285 l 1
 62 285 l 1
 62 229 l 1
EndSplineSet
EndChar

StartChar: dblarrowheadtailleft
Encoding: 14 -1 14
Width: 1171
Flags: W
HStem: 229 56<175 242 325 906>
LayerCount: 2
Fore
SplineSet
906 229 m 1
 324 229 l 1
 443 85 l 1
 412 52 l 1
 242 229 l 1
 174 229 l 1
 293 85 l 1
 262 52 l 1
 66 256 l 1
 262 462 l 1
 293 429 l 1
 174 285 l 1
 244 285 l 1
 412 462 l 1
 443 429 l 1
 324 285 l 1
 906 285 l 1
 1076 462 l 1
 1105 429 l 1
 986 285 l 1
 986 229 l 1
 1105 85 l 1
 1076 52 l 1
 906 229 l 1
EndSplineSet
EndChar

StartChar: dblarrowheadtailright
Encoding: 15 -1 15
Width: 1171
Flags: W
HStem: 229 56<265 846 929 996>
LayerCount: 2
Fore
SplineSet
265 229 m 1
 847 229 l 1
 728 85 l 1
 759 52 l 1
 929 229 l 1
 997 229 l 1
 878 85 l 1
 909 52 l 1
 1105 256 l 1
 909 462 l 1
 878 429 l 1
 997 285 l 1
 927 285 l 1
 759 462 l 1
 728 429 l 1
 847 285 l 1
 265 285 l 1
 95 462 l 1
 66 429 l 1
 185 285 l 1
 185 229 l 1
 66 85 l 1
 95 52 l 1
 265 229 l 1
EndSplineSet
EndChar

StartChar: barharpoonupleft
Encoding: 16 -1 16
Width: 964
Flags: W
HStem: 155 56<298 453 510 666>
VStem: 454 56<-162 155 211 568>
LayerCount: 2
Fore
SplineSet
510 702 m 5
 510 211 l 1
 667 211 l 1
 667 155 l 1
 510 155 l 1
 510 -163 l 1
 454 -163 l 1
 454 155 l 1
 297 155 l 1
 297 211 l 1
 454 211 l 1
 454 569 l 1
 310 450 l 1
 277 481 l 1
 510 702 l 5
EndSplineSet
EndChar

StartChar: barharpoonupright
Encoding: 17 -1 17
Width: 964
Flags: W
HStem: 155 56<278 434 491 646>
VStem: 434 56<-162 155 211 568>
LayerCount: 2
Fore
SplineSet
434 702 m 5
 434 211 l 1
 277 211 l 1
 277 155 l 1
 434 155 l 1
 434 -163 l 1
 490 -163 l 1
 490 155 l 1
 647 155 l 1
 647 211 l 1
 490 211 l 1
 490 569 l 1
 634 450 l 1
 667 481 l 1
 434 702 l 5
EndSplineSet
EndChar

StartChar: triangleleftminus
Encoding: 18 -1 18
Width: 636
Flags: W
HStem: 232 50<209 523>
VStem: 524 50<86 231 283 428>
LayerCount: 2
Fore
SplineSet
524 232 m 25
 208 232 l 25
 524 85 l 25
 524 232 l 25
574 6 m 1
 62 247 l 5
 62 267 l 1
 574 508 l 1
 574 6 l 1
524 282 m 1
 524 429 l 1
 208 282 l 1
 524 282 l 1
EndSplineSet
EndChar

StartChar: trianglerightminus
Encoding: 19 -1 19
Width: 636
Flags: W
HStem: 232 50<113 427>
VStem: 62 50<86 231 283 428>
LayerCount: 2
Fore
SplineSet
112 232 m 25
 428 232 l 29
 112 85 l 25
 112 232 l 25
62 6 m 1
 574 247 l 1
 574 267 l 1
 62 508 l 1
 62 6 l 1
112 282 m 1
 112 429 l 1
 428 282 l 1
 112 282 l 1
EndSplineSet
EndChar

StartChar: strokeangbracketleft
Encoding: 20 -1 20
Width: 363
Flags: W
HStem: -163 840<265 267>
VStem: 219 48<45 461>
LayerCount: 2
Fore
SplineSet
219 40.5052 m 1
 219 473.495 l 1
 119 257 l 1
 219 40.5052 l 1
267 -63.4124 m 1
 313 -163 l 1
 265 -163 l 1
 50 257 l 1
 265 677 l 1
 313 677 l 1
 267 577.412 l 1
 267 -63.4124 l 1
EndSplineSet
EndChar

StartChar: strokeangbracketright
Encoding: 21 -1 21
Width: 363
Flags: W
HStem: -163 840<96 98>
VStem: 96 48<42 461>
LayerCount: 2
Fore
SplineSet
96 577.412 m 1
 50 677 l 1
 98 677 l 1
 313 257 l 1
 98 -163 l 1
 50 -163 l 1
 96 -63.4124 l 1
 96 577.412 l 1
144 473.495 m 1
 144 40.5052 l 1
 244 257 l 1
 144 473.495 l 1
EndSplineSet
EndChar

StartChar: strokeparenleft
Encoding: 22 -1 22
Width: 333
Flags: W
VStem: 48 86<223 271> 210 48<-65 559>
LayerCount: 2
Fore
SplineSet
210 -70.1686 m 1
 210 567.461 l 1
 196.12 548.361 184.908 528.154 174 504 c 0
 147 442 134 360 134 255 c 0
 134 155 145 79 169 12 c 0
 180.983 -21.2872 193.164 -46.6951 210 -70.1686 c 1
258 -122.574 m 1
 271.158 -134.503 286.307 -147.067 304 -161 c 1
 292 -177 l 1
 240 -145 214 -123 173 -75 c 0
 85 27 48 125 48 252 c 0
 48 369 83 469 154 556 c 0
 191 602 221 628 295 676 c 1
 304 660 l 1
 286.336 645.77 271.199 632.865 258 620.575 c 1
 258 -122.574 l 1
EndSplineSet
EndChar

StartChar: strokeparenright
Encoding: 23 -1 23
Width: 333
Flags: W
VStem: 75 48<-67 559> 199 86<223 271>
LayerCount: 2
Fore
SplineSet
75 621.469 m 1
 61.8813 633.43 46.7444 646.026 29 660 c 1
 41 676 l 1
 93 644 119 622 160 574 c 0
 248 472 285 375 285 247 c 0
 285 130 250 30 179 -57 c 0
 142 -103 112 -129 38 -177 c 1
 29 -161 l 1
 46.6645 -146.77 61.8009 -133.865 75 -121.56 c 1
 75 621.469 l 1
123 568.59 m 1
 123 -68.2337 l 1
 136.88 -48.9888 148.092 -28.5433 159 -4 c 0
 186 57 199 140 199 244 c 0
 199 344 188 420 164 487 c 0
 151.675 520.014 139.543 545.277 123 568.59 c 1
EndSplineSet
EndChar

StartChar: strokebraceleft
Encoding: 24 -1 24
Width: 388
Flags: W
HStem: -165 7<320 330> 674 7<320 330>
VStem: 119 72<-42 165 351 560> 237 48<-117 635>
LayerCount: 2
Fore
SplineSet
237 -122.19 m 1
 237 638.697 l 1
 210.143 618.786 191 593.807 191 573 c 2
 191 374 l 2
 191 301 165 273 113 257 c 1
 165 240 191 216 191 143 c 2
 191 -56 l 2
 191 -76.8068 210.143 -102.031 237 -122.19 c 1
285 -148.75 m 1
 300.39 -154.56 316.154 -158 331 -158 c 5
 331 -165 l 5
 176 -165 119 -58 119 -41 c 2
 119 165 l 2
 119 215 96 237 48 257 c 1
 48 258 l 1
 96 280 119 302 119 352 c 2
 119 558 l 2
 119 574 176 681 331 681 c 5
 331 674 l 5
 316.154 674 300.39 670.617 285 664.895 c 1
 285 -148.75 l 1
EndSplineSet
EndChar

StartChar: strokebraceright
Encoding: 25 -1 25
Width: 388
Flags: W
HStem: -165 7<57.125 71.3512> 674 7<57.125 71.4827>
VStem: 103 48<-121 635> 197 72<-42 165 351 560>
LayerCount: 2
Fore
SplineSet
151 -122.189 m 1
 151 638.697 l 1
 177.857 618.786 197 593.807 197 573 c 2
 197 374 l 2
 197 301 223 273 275 257 c 1
 223 240 197 216 197 143 c 2
 197 -56 l 2
 197 -76.8066 177.857 -102.031 151 -122.189 c 1
103 -148.75 m 1
 87.6094 -154.56 71.8457 -158 57 -158 c 1
 57 -165 l 1
 212 -165 269 -58 269 -41 c 2
 269 165 l 2
 269 215 292 237 340 257 c 1
 340 258 l 1
 292 280 269 302 269 352 c 2
 269 558 l 2
 269 574 212 681 57 681 c 5
 57 674 l 1
 71.8457 674 87.6094 670.617 103 664.895 c 1
 103 -148.75 l 1
EndSplineSet
EndChar

StartChar: strokebracketleft
Encoding: 26 -1 26
Width: 343
Flags: W
HStem: -156 25<213 309 268 309> 637 25<88 309>
VStem: 88 76<-156 662> 220 48<-131 637>
LayerCount: 2
Fore
SplineSet
309 -131 m 1
 309 -156 l 1
 88 -156 l 1
 88 662 l 1
 309 662 l 5
 309 637 l 1
 268 637 l 1
 268 -131 l 1
 309 -131 l 1
220 -131 m 1
 220 637 l 1
 209 637 l 2
 177 637 164 624 164 593 c 2
 164 -79 l 2
 164 -114 180 -131 213 -131 c 2
 220 -131 l 1
EndSplineSet
EndChar

StartChar: strokebracketright
Encoding: 27 -1 27
Width: 343
Flags: W
HStem: -156 25<34 255> 637 25<34 134>
VStem: 75 48<-131 637> 179 76<-156 662>
LayerCount: 2
Fore
SplineSet
34 -131 m 1
 34 -156 l 1
 255 -156 l 1
 255 662 l 1
 34 662 l 1
 34 637 l 1
 75 637 l 1
 75 -131 l 1
 34 -131 l 1
123 -131 m 1
 123 637 l 1
 134 637 l 2
 166 637 179 624 179 593 c 2
 179 -79 l 2
 179 -114 163 -131 130 -131 c 2
 123 -131 l 1
EndSplineSet
EndChar

StartChar: dblangbracketleft
Encoding: 28 -1 28
Width: 513
Flags: W
LayerCount: 2
Fore
SplineSet
415 677 m 29
 463 677 l 25
 269 257 l 25
 463 -163 l 25
 415 -163 l 25
 200 257 l 25
 415 677 l 29
313 -163 m 1
 265 -163 l 1
 50 257 l 1
 265 677 l 1
 313 677 l 1
 119 257 l 1
 313 -163 l 1
EndSplineSet
EndChar

StartChar: dblangbracketright
Encoding: 29 -1 29
Width: 513
Flags: W
LayerCount: 2
Fore
SplineSet
98 677 m 25
 50 677 l 25
 244 257 l 25
 50 -163 l 25
 98 -163 l 25
 313 257 l 25
 98 677 l 25
200 -163 m 1
 248 -163 l 1
 463 257 l 5
 248 677 l 1
 200 677 l 1
 394 257 l 1
 200 -163 l 1
EndSplineSet
EndChar

StartChar: dblbraceleft
Encoding: 30 -1 30
Width: 471
Flags: W
HStem: -165 7<272 279 416 422> 674 7<272 279 416 422>
VStem: 119 72<-54 165 351 571> 262 72<-54 165 351 571>
LayerCount: 2
Fore
SplineSet
280 -165 m 1
 125 -165 119 -58 119 -41 c 2
 119 165 l 2
 119 215 96 237 48 257 c 1
 48 258 l 1
 96 280 119 302 119 352 c 2
 119 558 l 2
 119 574 125 681 280 681 c 1
 280 674 l 1
 218 674 191 615 191 573 c 2
 191 374 l 2
 191 301 165 273 113 257 c 1
 165 240 191 216 191 143 c 2
 191 -56 l 2
 191 -98 218 -158 280 -158 c 1
 280 -165 l 1
423 -165 m 5
 268 -165 262 -58 262 -41 c 6
 262 165 l 6
 262 215 239 237 191 257 c 5
 191 258 l 5
 239 280 262 302 262 352 c 6
 262 558 l 6
 262 574 268 681 423 681 c 5
 423 674 l 5
 361 674 334 615 334 573 c 6
 334 374 l 6
 334 301 308 273 256 257 c 5
 308 240 334 216 334 143 c 6
 334 -56 l 6
 334 -98 361 -158 423 -158 c 5
 423 -165 l 5
EndSplineSet
EndChar

StartChar: dblbraceright
Encoding: 31 -1 31
Width: 481
Flags: W
HStem: -166 7<48.1252 61.5012 191.125 204.501> 673 7<48.1252 61.5838 191.125 204.584>
VStem: 137 72<-55 165 350 570> 280 72<-55 165 350 570>
LayerCount: 2
Fore
SplineSet
280 257 m 1
 232 236 209 214 209 164 c 2
 209 -42 l 2
 209 -59 203 -166 48 -166 c 1
 48 -159 l 1
 110 -159 137 -99 137 -57 c 2
 137 142 l 2
 137 215 163 240 215 257 c 1
 163 273 137 300 137 373 c 2
 137 572 l 2
 137 614 110 673 48 673 c 1
 48 680 l 1
 203 680 209 573 209 557 c 2
 209 351 l 2
 209 301 232 279 280 257 c 1
423 257 m 5
 375 236 352 214 352 164 c 6
 352 -42 l 6
 352 -59 346 -166 191 -166 c 5
 191 -159 l 5
 253 -159 280 -99 280 -57 c 6
 280 142 l 6
 280 215 306 240 358 257 c 5
 306 273 280 300 280 373 c 6
 280 572 l 6
 280 614 253 673 191 673 c 5
 191 680 l 5
 346 680 352 573 352 557 c 6
 352 351 l 6
 352 301 375 279 423 257 c 5
EndSplineSet
EndChar

StartChar: dblparenleft
Encoding: 32 -1 32
Width: 505
Flags: W
VStem: 48 86<223 271> 220 86<223 271>
LayerCount: 2
Fore
SplineSet
295 676 m 1
 304 660 l 1
 232 602 202 566 174 504 c 0
 147 442 134 360 134 255 c 0
 134 155 145 79 169 12 c 0
 196 -63 224 -98 304 -161 c 1
 292 -177 l 1
 240 -145 214 -123 173 -75 c 0
 85 27 48 125 48 252 c 0
 48 369 83 469 154 556 c 0
 191 602 221 628 295 676 c 1
467 676 m 5
 476 660 l 5
 404 602 374 566 346 504 c 4
 319 442 306 360 306 255 c 4
 306 155 317 79 341 12 c 4
 368 -63 396 -98 476 -161 c 5
 464 -177 l 5
 412 -145 386 -123 345 -75 c 4
 257 27 220 125 220 252 c 4
 220 369 255 469 326 556 c 4
 363 602 393 628 467 676 c 5
EndSplineSet
EndChar

StartChar: dblparenright
Encoding: 33 -1 33
Width: 505
Flags: W
VStem: 199 86<223 271> 371 86<223 271>
LayerCount: 2
Fore
SplineSet
38 -177 m 1
 29 -161 l 1
 101 -103 131 -67 159 -4 c 0
 186 57 199 140 199 244 c 0
 199 344 188 420 164 487 c 0
 136 562 109 597 29 660 c 1
 41 676 l 1
 93 644 119 622 160 574 c 0
 248 472 285 375 285 247 c 0
 285 130 250 30 179 -57 c 0
 142 -103 112 -129 38 -177 c 1
210 -177 m 5
 201 -161 l 5
 273 -103 303 -67 331 -4 c 4
 358 57 371 140 371 244 c 4
 371 344 360 420 336 487 c 4
 308 562 281 597 201 660 c 5
 213 676 l 5
 265 644 291 622 332 574 c 4
 420 472 457 375 457 247 c 4
 457 130 422 30 351 -57 c 4
 314 -103 284 -129 210 -177 c 5
EndSplineSet
EndChar

StartChar: dblcolon
Encoding: 34 -1 34
Width: 389
Flags: W
HStem: -66.5 27.75<190 195> 127.75 27.75<190 195> 292.5 27.75<190 195> 486.75 27.75<190 195>
VStem: 83.5 27.75<40 45 397 413> 277.75 27.75<40 45 397 413>
LayerCount: 2
Fore
SplineSet
193.75 127.75 m 4
 148.75 127.75 111.25 88.75 111.25 42.25 c 4
 111.25 -1.25 148.75 -38.75 192.25 -38.75 c 4
 238.75 -38.75 277.75 -1.25 277.75 42.25 c 4
 277.75 88.75 238.75 127.75 193.75 127.75 c 4
193.75 486.75 m 0
 148.75 486.75 111.25 447.75 111.25 401.25 c 0
 111.25 357.75 148.75 320.25 192.25 320.25 c 0
 238.75 320.25 277.75 357.75 277.75 401.25 c 0
 277.75 447.75 238.75 486.75 193.75 486.75 c 0
193.5 514.5 m 0
 253.5 514.5 305.5 462.5 305.5 400.5 c 0
 305.5 342.5 253.5 292.5 191.5 292.5 c 0
 133.5 292.5 83.5 342.5 83.5 400.5 c 0
 83.5 462.5 133.5 514.5 193.5 514.5 c 0
193.5 155.5 m 0
 253.5 155.5 305.5 103.5 305.5 41.5 c 0
 305.5 -16.5 253.5 -66.5 191.5 -66.5 c 0
 133.5 -66.5 83.5 -16.5 83.5 41.5 c 0
 83.5 103.5 133.5 155.5 193.5 155.5 c 0
EndSplineSet
EndChar

StartChar: dblsemicolon
Encoding: 35 -1 35
Width: 389
Flags: W
HStem: -66 27.75<190 196> 128.25 27.75<190 196> 292.5 27.75<190 196> 486.75 27.75<190 196>
VStem: 84 27.75<35 51 399 403> 278.25 27.75<35 51 399 403>
LayerCount: 2
Fore
SplineSet
193.75 486.75 m 0
 148.75 486.75 111.25 447.75 111.25 401.25 c 0
 111.25 357.75 148.75 320.25 192.25 320.25 c 0
 238.75 320.25 277.75 357.75 277.75 401.25 c 0
 277.75 447.75 238.75 486.75 193.75 486.75 c 0
193.5 514.5 m 0
 253.5 514.5 305.5 462.5 305.5 400.5 c 0
 305.5 342.5 253.5 292.5 191.5 292.5 c 0
 133.5 292.5 83.5 342.5 83.5 400.5 c 0
 83.5 462.5 133.5 514.5 193.5 514.5 c 0
194.25 128.25 m 0
 149.25 128.25 111.75 89.25 111.75 42.75 c 0
 111.75 -0.75 149.25 -38.25 192.75 -38.25 c 0
 239.25 -38.25 278.25 -0.75 278.25 42.75 c 0
 278.25 89.25 239.25 128.25 194.25 128.25 c 0
306 42 m 0
 306 -48 238.5 -139.5 138 -189 c 1
 124.5 -160.5 l 1
 160.579 -135.779 188.921 -111.059 209.26 -87 c 1
 220.936 -73.1895 200.592 -95.6982 238.312 -56.2871 c 1
 223.801 -61.7884 208.396 -66 192 -66 c 0
 134 -66 84 -16 84 42 c 0
 84 104 134 156 194 156 c 0
 254 156 306 104 306 42 c 0
EndSplineSet
EndChar

StartChar: squareelem
Encoding: 36 -1 36
Width: 636
Flags: W
HStem: 8 52<103 583> 233 50<103 583> 456 50<103 583>
VStem: 52 50<60 233 283 456>
LayerCount: 2
Fore
SplineSet
102 233 m 1
 102 60 l 1
 584 60 l 1
 584 8 l 1
 52 8 l 1
 52 506 l 1
 584 506 l 1
 584 456 l 1
 102 456 l 1
 102 283 l 1
 584 283 l 5
 584 233 l 5
 102 233 l 1
EndSplineSet
EndChar

StartChar: feedbackleft
Encoding: 37 -1 37
Width: 300
Flags: W
HStem: -156 53<78 249> -24 50<152 249> 612 50<152 249>
VStem: 50 50<78 552> 77 173<-155 -104>
LayerCount: 2
Fore
SplineSet
250 612 m 1xe8
 162 612 l 2
 128.88 612 100 583.12 100 550 c 2
 100 88 l 2xf0
 100 54.8799 128.88 26 162 26 c 2
 250 26 l 1
 250 -24 l 1xe8
 150 -24 l 2
 94.7998 -24 50 20.7998 50 76 c 2
 50 562 l 2xf0
 50 617.2 94.7998 662 150 662 c 2
 250 662 l 1
 250 612 l 1xe8
250 -156 m 5xe8
 77 -156 l 1
 77 -103 l 1
 250 -103 l 1
 250 -156 l 5xe8
EndSplineSet
EndChar

StartChar: feedbackright
Encoding: 38 -1 38
Width: 300
Flags: W
HStem: -156 53<51 222> -24 50<51 146> 612 50<51 146>
VStem: 50 173<-155 -104> 200 50<78 552>
LayerCount: 2
Fore
SplineSet
50 612 m 1xf0
 138 612 l 2
 171.12 612 200 583.12 200 550 c 2
 200 88 l 2xe8
 200 54.8799 171.12 26 138 26 c 2
 50 26 l 1
 50 -24 l 1xf0
 150 -24 l 2
 205.2 -24 250 20.7998 250 76 c 2
 250 562 l 2xe8
 250 617.2 205.2 662 150 662 c 2
 50 662 l 1
 50 612 l 1xf0
50 -156 m 5xf0
 223 -156 l 1
 223 -103 l 1
 50 -103 l 1
 50 -156 l 5xf0
EndSplineSet
EndChar

StartChar: gapominus
Encoding: 39 -1 39
Width: 636
Flags: W
HStem: -44 45<305 337> 229 56<65 129 497 561> 513 45<305 337>
VStem: 17 126.291<244 276> 492.709 126.291<244 276>
LayerCount: 2
Fore
SplineSet
619 257 m 0
 619 91 484 -44 318 -44 c 0
 152 -44 17 91 17 257 c 0
 17 423 152 558 318 558 c 0
 484 558 619 423 619 257 c 0
572.462 285 m 1
 558.328 412.913 448.608 513 318 513 c 0
 186.459 513 77.5471 412.913 63.5259 285 c 1
 143.291 285 l 5
 143.291 229 l 5
 63.5259 229 l 1
 77.5471 101.088 186.459 1 318 1 c 0
 448.608 1 558.328 101.088 572.462 229 c 1
 492.709 229 l 9
 492.709 285 l 17
 572.462 285 l 1
EndSplineSet
EndChar

StartChar: oempty
Encoding: 40 -1 40
Width: 636
Flags: W
HStem: -44 45<305 337> 513 45<305 337>
VStem: 17 45<244 276> 574 45<244 276>
LayerCount: 2
Fore
SplineSet
619 257 m 0
 619 91 484 -44 318 -44 c 0
 152 -44 17 91 17 257 c 0
 17 423 152 558 318 558 c 0
 484 558 619 423 619 257 c 0
574 257 m 0
 574 398 458 513 318 513 c 0
 177 513 62 398 62 257 c 0
 62 116 177 1 318 1 c 0
 458 1 574 116 574 257 c 0
EndSplineSet
EndChar

StartChar: chopleft
Encoding: 41 -1 41
Width: 1050
Flags: W
HStem: -44 45<562 594> 229 56<159 279 878 999> 513 45<562 594>
VStem: 835 165<244 276>
LayerCount: 2
Fore
SplineSet
323 257 m 0
 323 398 439 513 579 513 c 0
 720 513 835 398 835 257 c 0
 835 116 720 1 579 1 c 0
 439 1 323 116 323 257 c 0
279.291 229 m 1
 293.454 76.082 422.439 -44 579 -44 c 0
 735.56 -44 864.546 76.082 878.709 229 c 1
 1000 229 l 5
 1000 285 l 1
 878.709 285 l 1
 864.546 437.918 735.561 558 579 558 c 0
 422.439 558 293.454 437.918 279.291 285 c 1
 158 285 l 1
 277 429 l 1
 246 462 l 1
 50 258 l 1
 246 52 l 1
 277 85 l 1
 158 229 l 1
 279.291 229 l 1
EndSplineSet
EndChar

StartChar: chopright
Encoding: 42 -1 42
Width: 1050
Flags: W
HStem: -44 45<450 482> 229 56<51 171 770 891> 513 45<450 482>
VStem: 50 165<244 276>
LayerCount: 2
Fore
SplineSet
727 257 m 4
 727 398 611 513 471 513 c 4
 330 513 215 398 215 257 c 4
 215 116 330 1 471 1 c 4
 611 1 727 116 727 257 c 4
770.709 229 m 5
 756.546 76.082 627.561 -44 471 -44 c 4
 314.44 -44 185.454 76.082 171.291 229 c 5
 50 229 l 5
 50 285 l 5
 171.291 285 l 5
 185.454 437.918 314.439 558 471 558 c 4
 627.561 558 756.546 437.918 770.709 285 c 5
 892 285 l 5
 773 429 l 5
 804 462 l 5
 1000 258 l 5
 804 52 l 5
 773 85 l 5
 892 229 l 5
 770.709 229 l 5
EndSplineSet
EndChar

StartChar: hstrokediamond
Encoding: 43 -1 43
Width: 942
Flags: W
HStem: 229 56<51 163 778 891>
LayerCount: 2
Fore
SplineSet
471 511.932 m 1
 217.077 258.009 l 1
 471 4.08594 l 1
 724.923 258.009 l 1
 471 511.932 l 1
163.883 285 m 1
 471 592.117 l 1
 778.117 285 l 1
 892 285 l 1
 892 229 l 1
 776.1 229 l 1
 471 -76.0996 l 1
 165.9 229 l 1
 50 229 l 13
 50 285 l 21
 163.883 285 l 1
EndSplineSet
EndChar

StartChar: hstrokebox
Encoding: 44 -1 44
Width: 817
Flags: W
HStem: 21.7588 56.6992<242 578> 229 56<66 171 645 754> 437.56 56.699<242 578>
VStem: 172.25 56.699<85 228 286 421> 588.051 56.699<85 229 285 421> 588.051 178.74<230 284>
LayerCount: 2
Fore
SplineSet
588.051 437.56 m 1xf4
 228.949 437.56 l 1
 228.949 78.458 l 1
 588.051 78.458 l 1
 588.051 437.56 l 1xf4
172.25 229 m 1
 50.209 229 l 9
 50.209 285 l 17
 172.25 285 l 1
 172.25 494.259 l 1
 644.75 494.259 l 1
 644.75 285 l 1xf8
 766.791 285 l 1
 766.791 229 l 1xf4
 644.75 229 l 1
 644.75 21.7588 l 1xf8
 172.25 21.7588 l 1
 172.25 229 l 1
EndSplineSet
EndChar

StartChar: circledarrowboth
Encoding: 45 -1 45
Width: 964
Flags: W
HStem: 72 48<478 494> 229 56<171 296 347 606 666 792> 396 48<478 494>
LayerCount: 2
Fore
SplineSet
616.944 229 m 1
 345.971 229 l 1
 359.077 166.23 414.097 120 482 120 c 0
 547.292 120 603.489 166.23 616.944 229 c 1
345.623 285 m 1
 617.301 285 l 1
 604.511 348.153 547.886 396 482 396 c 0
 413.478 396 358.076 348.153 345.623 285 c 1
666.069 285 m 1
 793 285 l 1
 675 428 l 1
 706 462 l 1
 902 258 l 5
 706 52 l 1
 675 84 l 1
 793 229 l 1
 665.806 229 l 1
 652.045 139.157 575.213 72 482 72 c 0
 386.978 72 310.792 139.157 297.171 229 c 1
 170 229 l 1
 289 85 l 1
 258 52 l 1
 62 256 l 1
 258 462 l 1
 289 429 l 1
 170 285 l 1
 296.91 285 l 1
 309.789 375.126 386.352 444 482 444 c 0
 575.827 444 653.057 375.126 666.069 285 c 1
EndSplineSet
EndChar

StartChar: barcircledarrowleft
Encoding: 46 -1 46
Width: 964
Flags: W
HStem: 229 56<171 370 421 527 585 686 740 901>
VStem: 528 56<124 228 286 388>
LayerCount: 2
Fore
SplineSet
584 122.882 m 1
 636.838 133.898 679.46 175.424 690.944 229 c 1
 584 229 l 5
 584 122.882 l 1
419.971 229 m 1
 431.221 175.122 473.349 133.43 528 122.699 c 1
 528 229 l 5
 419.971 229 l 1
528 393.261 m 1
 472.77 382.264 430.328 339.287 419.623 285 c 1
 528 285 l 5
 528 393.261 l 1
691.301 285 m 1
 680.368 338.986 637.401 381.787 584 393.075 c 1
 584 285 l 5
 691.301 285 l 1
740.069 285 m 1
 902 285 l 5
 902 229 l 5
 739.806 229 l 1
 726.045 139.157 649.213 72 556 72 c 0
 460.978 72 384.792 139.157 371.171 229 c 1
 170 229 l 5
 289 85 l 5
 258 52 l 5
 62 258 l 5
 258 462 l 5
 289 429 l 5
 170 285 l 5
 370.91 285 l 1
 383.789 375.126 460.352 444 556 444 c 0
 649.827 444 727.057 375.126 740.069 285 c 1
EndSplineSet
EndChar

StartChar: barcircledarrowright
Encoding: 47 -1 47
Width: 964
Flags: W
HStem: 229 56<63 223 275 379 437 542 593 793>
VStem: 380 56<124 228 286 388>
LayerCount: 2
Fore
SplineSet
380 122.883 m 1
 327.162 133.898 284.54 175.424 273.057 229 c 1
 380 229 l 5
 380 122.883 l 1
544.029 229 m 1
 532.779 175.122 490.65 133.43 436 122.699 c 1
 436 229 l 5
 544.029 229 l 1
436 393.261 m 1
 491.23 382.265 533.672 339.287 544.377 285 c 1
 436 285 l 5
 436 393.261 l 1
272.699 285 m 1
 283.632 338.986 326.599 381.787 380 393.075 c 1
 380 285 l 5
 272.699 285 l 1
223.931 285 m 1
 62 285 l 5
 62 229 l 5
 224.194 229 l 1
 237.954 139.156 314.787 72 408 72 c 0
 503.022 72 579.208 139.156 592.829 229 c 1
 794 229 l 5
 675 85 l 5
 706 52 l 5
 902 258 l 5
 706 462 l 5
 675 429 l 5
 794 285 l 5
 593.09 285 l 1
 580.211 375.126 503.648 444 408 444 c 0
 314.174 444 236.943 375.126 223.931 285 c 1
EndSplineSet
EndChar

StartChar: circledarrowleft
Encoding: 48 -1 48
Width: 964
Flags: W
HStem: 72 48<542 558> 229 56<171 370 421 686 740 901> 396 48<542 558>
LayerCount: 2
Fore
SplineSet
690.944 229 m 1
 419.971 229 l 1
 433.077 166.23 488.097 120 556 120 c 0
 621.292 120 677.489 166.23 690.944 229 c 1
419.623 285 m 1
 691.301 285 l 1
 678.511 348.153 621.886 396 556 396 c 0
 487.478 396 432.076 348.153 419.623 285 c 1
740.069 285 m 1
 902 285 l 5
 902 229 l 5
 739.806 229 l 1
 726.045 139.157 649.213 72 556 72 c 0
 460.978 72 384.792 139.157 371.171 229 c 1
 170 229 l 5
 289 85 l 5
 258 52 l 5
 62 258 l 5
 258 462 l 5
 289 429 l 5
 170 285 l 5
 370.91 285 l 1
 383.789 375.126 460.352 444 556 444 c 0
 649.827 444 727.057 375.126 740.069 285 c 1
EndSplineSet
EndChar

StartChar: circledarrowright
Encoding: 49 -1 49
Width: 964
Flags: W
HStem: 72 48<398 414> 229 56<63 223 286 542 593 793> 396 48<398 414>
LayerCount: 2
Fore
SplineSet
273.057 229 m 1
 544.029 229 l 1
 530.923 166.229 475.903 120 408 120 c 0
 342.708 120 286.512 166.229 273.057 229 c 1
544.377 285 m 1
 272.699 285 l 1
 285.488 348.152 342.114 396 408 396 c 0
 476.521 396 531.924 348.152 544.377 285 c 1
223.931 285 m 1
 62 285 l 5
 62 229 l 5
 224.194 229 l 1
 237.954 139.156 314.787 72 408 72 c 0
 503.022 72 579.208 139.156 592.829 229 c 1
 794 229 l 5
 675 85 l 5
 706 52 l 5
 902 258 l 5
 706 462 l 5
 675 429 l 5
 794 285 l 5
 593.09 285 l 1
 580.211 375.126 503.648 444 408 444 c 0
 314.174 444 236.943 375.126 223.931 285 c 1
EndSplineSet
EndChar

StartChar: barhalfcircledarrowleft
Encoding: 50 -1 50
Width: 964
Flags: W
HStem: 229 56<171 370 421 527 584 901>
VStem: 528 56<132 228 286 388>
LayerCount: 2
Fore
SplineSet
419.623 285 m 1
 528 285 l 1
 528 393.261 l 1
 472.77 382.264 430.328 339.287 419.623 285 c 1
528 122.699 m 1
 528 229 l 1
 419.971 229 l 1
 431.221 175.122 473.349 133.43 528 122.699 c 1
371.171 229 m 1
 170 229 l 1
 289 85 l 1
 258 52 l 1
 62 258 l 1
 258 462 l 1
 289 429 l 1
 170 285 l 1
 370.91 285 l 1
 383.789 375.126 460.352 444 556 444 c 1
 584 442 l 1
 584 285 l 1
 902 285 l 1
 902 229 l 1
 584 229 l 1
 584 72 l 1
 556 72 l 2
 460.978 72 384.792 139.157 371.171 229 c 1
EndSplineSet
EndChar

StartChar: barhalfcircledarrowright
Encoding: 51 -1 51
Width: 964
Flags: W
HStem: 229 56<63 380 437 542 593 793>
VStem: 380 56<124 228 286 388>
LayerCount: 2
Fore
SplineSet
544.377 285 m 1
 436 285 l 1
 436 393.261 l 1
 491.23 382.265 533.672 339.287 544.377 285 c 1
436 122.699 m 1
 436 229 l 1
 544.029 229 l 1
 532.779 175.122 490.65 133.43 436 122.699 c 1
592.829 229 m 1
 794 229 l 1
 675 85 l 1
 706 52 l 1
 902 258 l 1
 706 462 l 1
 675 429 l 1
 794 285 l 1
 593.09 285 l 1
 580.211 375.126 503.648 444 408 444 c 1
 380 442 l 1
 380 285 l 1
 62 285 l 1
 62 229 l 1
 380 229 l 1
 380 72 l 1
 408 72 l 2
 503.022 72 579.208 139.156 592.829 229 c 1
EndSplineSet
EndChar

StartChar: halfcircledarrowleft
Encoding: 52 -1 52
Width: 964
Flags: W
HStem: 72 48<542 555> 229 56<171 370 421 901> 396 48<542 555>
LayerCount: 2
Fore
SplineSet
419.971 229 m 1
 433.077 166.23 488.097 120 556 120 c 9
 556 72 l 17
 460.978 72 384.792 139.157 371.171 229 c 1
 170 229 l 1
 289 85 l 1
 258 52 l 1
 62 258 l 1
 258 462 l 1
 289 429 l 1
 170 285 l 1
 370.91 285 l 1
 383.789 375.126 460.352 444 556 444 c 9
 556 396 l 17
 487.478 396 432.076 348.153 419.623 285 c 1
 902 285 l 1
 902 229 l 1
 419.971 229 l 1
EndSplineSet
EndChar

StartChar: halfcircledarrowright
Encoding: 53 -1 53
Width: 964
Flags: W
HStem: 72 48<408.125 425.13> 229 56<63 542 593 793> 396 48<408.125 424.986>
LayerCount: 2
Fore
SplineSet
544.029 229 m 1
 530.923 166.229 475.903 120 408 120 c 9
 408 72 l 17
 503.022 72 579.208 139.156 592.829 229 c 1
 794 229 l 1
 675 85 l 1
 706 52 l 1
 902 258 l 1
 706 462 l 1
 675 429 l 1
 794 285 l 1
 593.09 285 l 1
 580.211 375.126 503.648 444 408 444 c 9
 408 396 l 17
 476.521 396 531.924 348.152 544.377 285 c 1
 62 285 l 1
 62 229 l 1
 544.029 229 l 1
EndSplineSet
EndChar

StartChar: barparenleft
Encoding: 54 -1 54
Width: 333
Flags: W
HStem: 221 57<136 303>
VStem: 48 256<221 278> 48.636 85.579<279 280>
LayerCount: 2
Fore
SplineSet
134.451 221 m 1xc0
 136.74 137.412 147.796 71.1937 169 12 c 0
 196 -63 224 -98 304 -161 c 1
 292 -177 l 1
 240 -145 214 -123 173 -75 c 0
 85 27 48 125 48 252 c 0
 48 369 83 469 154 556 c 0
 191 602 221 628 295 676 c 1
 304 660 l 1xc0
 232 602 202 566 174 504 c 0
 149.004 446.602 136.007 372.062 134.215 278 c 1xa0
 304 278 l 5
 304 221 l 5
 134.451 221 l 1xc0
EndSplineSet
EndChar

StartChar: barparenright
Encoding: 55 -1 55
Width: 333
Flags: W
HStem: 221 57<30 189>
VStem: 29 256<221 278>
LayerCount: 2
Fore
SplineSet
198.781 221 m 1
 29 221 l 5
 29 278 l 5
 198.549 278 l 1
 196.26 361.588 185.204 427.806 164 487 c 0
 136 562 109 597 29 660 c 1
 41 676 l 1
 93 644 119 622 160 574 c 0
 248 472 285 375 285 247 c 0
 285 130 250 30 179 -57 c 0
 142 -103 112 -129 38 -177 c 1
 29 -161 l 1
 101 -103 131 -67 159 -4 c 0
 183.979 52.4341 196.975 127.698 198.781 221 c 1
EndSplineSet
EndChar

StartChar: barstrokeparenleft
Encoding: 56 -1 56
Width: 333
Flags: W
HStem: 221 57<144 209 259 303>
VStem: 48.636 85.579<279 280> 210 48<-65 220 279 559>
LayerCount: 2
Fore
SplineSet
210 -70.1686 m 1
 210 221 l 1
 134.451 221 l 1
 136.74 137.412 147.796 71.1937 169 12 c 0
 180.983 -21.2872 193.164 -46.6951 210 -70.1686 c 1
210 567.461 m 1
 196.12 548.361 184.908 528.154 174 504 c 0
 149.004 446.602 136.007 372.062 134.215 278 c 1
 210 278 l 1
 210 567.461 l 1
258 -122.574 m 1
 271.158 -134.503 286.307 -147.067 304 -161 c 1
 292 -177 l 1
 240 -145 214 -123 173 -75 c 0
 85 27 48 125 48 252 c 0
 48 369 83 469 154 556 c 0
 191 602 221 628 295 676 c 1
 304 660 l 1
 286.336 645.77 271.199 632.865 258 620.575 c 1
 258 278 l 1
 304 278 l 1
 304 221 l 1
 258 221 l 1
 258 -122.574 l 1
EndSplineSet
EndChar

StartChar: barstrokeparenright
Encoding: 57 -1 57
Width: 333
Flags: W
HStem: 221 57<30 74 124 189>
VStem: 75 48<-65 220 279 559>
LayerCount: 2
Fore
SplineSet
75 621.469 m 1
 61.8813 633.43 46.7444 646.026 29 660 c 1
 41 676 l 1
 93 644 119 622 160 574 c 0
 248 472 285 375 285 247 c 0
 285 130 250 30 179 -57 c 0
 142 -103 112 -129 38 -177 c 1
 29 -161 l 1
 46.6645 -146.77 61.8009 -133.865 75 -121.56 c 1
 75 221 l 1
 29 221 l 1
 29 278 l 1
 75 278 l 1
 75 621.469 l 1
123 568.59 m 1
 123 278 l 1
 198.549 278 l 1
 196.26 361.588 185.204 427.806 164 487 c 0
 151.675 520.014 139.543 545.277 123 568.59 c 1
123 -68.2337 m 1
 136.88 -48.9888 148.092 -28.5433 159 -4 c 0
 183.979 52.4341 196.975 127.698 198.781 221 c 1
 123 221 l 1
 123 -68.2337 l 1
EndSplineSet
EndChar

StartChar: barbracketleft
Encoding: 58 -1 58
Width: 333
Flags: W
HStem: -156 25<208 298> 221 57<165 298> 637 25<200 298>
VStem: 88 76<-92 221 278 596> 88 211<-155 -131 222 277 637 661>
LayerCount: 2
Fore
SplineSet
164 221 m 1xf0
 164 -79 l 2xf0
 164 -114 180 -131 213 -131 c 2
 299 -131 l 1
 299 -156 l 1
 88 -156 l 1
 88 662 l 1
 299 662 l 1
 299 637 l 1xe8
 209 637 l 2
 177 637 164 624 164 593 c 2
 164 278 l 1xf0
 299 278 l 5
 299 221 l 5xe8
 164 221 l 1xf0
EndSplineSet
EndChar

StartChar: barbracketright
Encoding: 59 -1 59
Width: 333
Flags: W
HStem: -156 25<35 130> 221 57<35 168> 637 25<35 130>
VStem: 169 76<-92 220 279 596>
LayerCount: 2
Fore
SplineSet
169 221 m 1
 34 221 l 5
 34 278 l 5
 169 278 l 1
 169 585 l 2
 169 620 153 637 120 637 c 2
 34 637 l 1
 34 662 l 1
 245 662 l 1
 245 -156 l 1
 34 -156 l 1
 34 -131 l 1
 124 -131 l 2
 155 -131 169 -118 169 -87 c 2
 169 221 l 1
EndSplineSet
EndChar

StartChar: barstrokebracketleft
Encoding: 60 -1 60
Width: 338
Flags: W
HStem: -156 25<259 303> 221 57<165 209 259 303> 637 25<200 209 259 303>
VStem: 88 76<-92 220 279 596> 210 48<-129 220 279 636>
LayerCount: 2
Fore
SplineSet
258 221 m 1
 258 -131 l 1
 304 -131 l 1
 304 -156 l 1
 88 -156 l 1
 88 662 l 1
 304 662 l 1
 304 637 l 1
 258 637 l 1
 258 278 l 5
 304 278 l 1
 304 221 l 1
 258 221 l 1
164 221 m 1
 164 -79 l 2
 164 -112.922 179.03 -129.936 210 -130.952 c 1
 210 221 l 1
 164 221 l 1
164 278 m 1
 210 278 l 1
 210 637 l 1
 209 637 l 2
 177 637 164 624 164 593 c 2
 164 278 l 1
EndSplineSet
EndChar

StartChar: barstrokebracketright
Encoding: 61 -1 61
Width: 338
Flags: W
HStem: -156 25<35 79> 221 57<35 79 129 173> 637 25<35 79 129 131>
VStem: 80 48<-130 220 279 636> 174 76<-92 220 279 596>
LayerCount: 2
Fore
SplineSet
80 278 m 1
 80 637 l 1
 34 637 l 1
 34 662 l 1
 250 662 l 1
 250 -156 l 1
 34 -156 l 1
 34 -131 l 1
 80 -131 l 1
 80 221 l 1
 34 221 l 5
 34 278 l 5
 80 278 l 1
174 278 m 1
 174 593 l 2
 174 624 161 637 129 637 c 2
 128 637 l 1
 128 278 l 1
 174 278 l 1
174 221 m 1
 128 221 l 1
 128 -130.951 l 1
 158.97 -129.936 174 -112.922 174 -79 c 2
 174 221 l 1
EndSplineSet
EndChar

StartChar: barparbrackleft
Encoding: 62 -1 62
Width: 453
Flags: W
HStem: -156 25<166 334 387 423> 221 57<256 423> 637 25<158 350 396 423> 637 26<46 424>
VStem: 46 76<-92 596> 168 256<221 278> 168.636 85.579<279 280>
LayerCount: 2
Fore
SplineSet
424 -131 m 17xec
 387.5 -131 l 1
 334.521 -84.9619 311.416 -50.2666 289 12 c 0
 267.796 71.1934 256.74 137.412 254.451 221 c 1
 424 221 l 1
 424 278 l 1xec
 254.215 278 l 1
 256.007 372.062 269.004 446.602 294 504 c 0
 318.115 557.397 343.714 591.51 396.349 637 c 1xea
 424 637 l 9
 424 663 l 25xdc
 46 662 l 17
 46 -156 l 9
 424 -156 l 25
 424 -131 l 17xec
347.211 -131 m 1
 171 -131 l 2
 138 -131 122 -114 122 -79 c 2
 122 593 l 2
 122 624 135 637 167 637 c 2xec
 358.085 637 l 1xdc
 322.033 610.264 299.706 587.959 274 556 c 0
 203 469 168 369 168 252 c 0
 168 125 205 27 293 -75 c 0
 313.061 -98.4854 329.53 -115.746 347.211 -131 c 1
EndSplineSet
EndChar

StartChar: barparbrackright
Encoding: 63 -1 63
Width: 453
Flags: W
HStem: -156 25<30 64 106 287> 221 57<30 189> 637 25<30 57 103 287>
VStem: 29 256<221 278> 330 76<-92 596>
LayerCount: 2
Fore
SplineSet
406 -156 m 1
 406 662 l 1
 30.5 662 l 1
 29 662 l 1
 29 660 l 1
 29 637 l 1
 57.2774 637 l 1
 115.942 587.365 139.591 552.382 164 487 c 0
 185.204 427.806 196.26 361.588 198.549 278 c 1
 29 278 l 1
 29 221 l 1
 198.781 221 l 1
 196.975 127.698 183.979 52.4341 159 -4 c 0
 136.136 -55.4433 111.939 -88.8838 64.6299 -131 c 1
 29 -131 l 1
 29 -156 l 1
 406 -156 l 1
97.4179 637 m 1
 281 637 l 2
 314 637 330 620 330 585 c 2
 330 -87 l 2
 330 -118 316 -131 285 -131 c 2
 104.171 -131 l 1
 134.943 -107.243 155.568 -86.1321 179 -57 c 0
 250 30 285 130 285 247 c 0
 285 375 248 472 160 574 c 0
 136.814 601.145 118.425 619.974 97.4179 637 c 1
EndSplineSet
EndChar

StartChar: barstrokeparbrackleft
Encoding: 64 -1 64
Width: 453
Flags: W
HStem: -156 25<166 334 387 423> 221 57<270 329 379 423> 637 25<158 350 396 423> 637 26<46 424>
VStem: 46 76<-92 596> 168.636 85.579<279 280> 330 48<-69 221 278 564>
LayerCount: 2
Fore
SplineSet
347.211 -131 m 1xee
 329.53 -115.746 313.061 -98.4854 293 -75 c 0
 205 27 168 125 168 252 c 0
 168 369 203 469 274 556 c 0
 299.706 587.959 322.033 610.264 358.085 637 c 1xde
 167 637 l 2
 135 637 122 624 122 593 c 2
 122 -79 l 2
 122 -114 138 -131 171 -131 c 2
 347.211 -131 l 1xee
378 620.575 m 1
 378 278 l 1
 424 278 l 1
 424 221 l 1
 378 221 l 1
 378 -122.573 l 1
 387.5 -131 l 1
 424 -131 l 9
 424 -156 l 25
 46 -156 l 17
 46 662 l 9xee
 424 663 l 25
 424 637 l 17xde
 396.349 637 l 1xee
 378 620.575 l 1
330 567.461 m 1
 316.12 548.361 304.908 528.154 294 504 c 0
 269.004 446.602 256.007 372.062 254.215 278 c 1
 330 278 l 1
 330 567.461 l 1
330 221 m 1
 254.451 221 l 1
 256.74 137.412 267.796 71.1934 289 12 c 0
 300.983 -21.2872 313.164 -46.6948 330 -70.1682 c 1
 330 221 l 1
EndSplineSet
EndChar

StartChar: barstrokeparbrackright
Encoding: 65 -1 65
Width: 453
Flags: W
HStem: -156 25<30 64 109 287> 221 57<30 74 124 189> 637 25<30 57 99 287>
VStem: 75 48<-60 220 279 564> 330 76<-92 596>
LayerCount: 2
Fore
SplineSet
97.4179 637 m 1
 118.425 619.974 136.814 601.145 160 574 c 0
 248 472 285 375 285 247 c 0
 285 130 250 30 179 -57 c 0
 155.568 -86.1321 134.943 -107.243 104.171 -131 c 1
 285 -131 l 2
 316 -131 330 -118 330 -87 c 2
 330 585 l 2
 330 620 314 637 281 637 c 2
 97.4179 637 l 1
123 -68.2337 m 1
 136.88 -48.9888 148.092 -28.5433 159 -4 c 0
 183.979 52.4341 196.975 127.698 198.781 221 c 1
 123 221 l 1
 123 -68.2337 l 1
123 278 m 1
 198.549 278 l 1
 196.26 361.588 185.204 427.806 164 487 c 0
 151.675 520.014 139.543 545.277 123 568.59 c 1
 123 278 l 1
75 -121.56 m 1
 75 221 l 1
 29 221 l 1
 29 278 l 1
 75 278 l 1
 75 621.469 l 1
 57.2774 637 l 1
 29 637 l 1
 29 660 l 1
 29 662 l 1
 30.5 662 l 1
 406 662 l 1
 406 -156 l 1
 29 -156 l 1
 29 -131 l 1
 64.6299 -131 l 1
 75 -121.56 l 1
EndSplineSet
EndChar

StartChar: barangbracketleft
Encoding: 66 -1 66
Width: 363
Flags: W
HStem: 229 56<133 312>
LayerCount: 2
Fore
SplineSet
131.933 229 m 1
 313 -163 l 1
 265 -163 l 1
 50 257 l 1
 265 677 l 1
 313 677 l 1
 131.933 285 l 1
 313 285 l 5
 313 229 l 5
 131.933 229 l 1
EndSplineSet
EndChar

StartChar: barangbracketright
Encoding: 67 -1 67
Width: 363
Flags: W
HStem: 229 56<51 226>
LayerCount: 2
Fore
SplineSet
231.067 229 m 1
 50 229 l 13
 50 285 l 21
 231.067 285 l 1
 50 677 l 1
 98 677 l 1
 313 257 l 1
 98 -163 l 1
 50 -163 l 1
 231.067 229 l 1
EndSplineSet
EndChar

StartChar: barstrokeangbracketleft
Encoding: 68 -1 68
Width: 363
Flags: W
HStem: 229 56<146 218 268 312>
VStem: 219 48<42 228 286 461>
LayerCount: 2
Fore
SplineSet
219 229 m 1
 131.933 229 l 1
 219 40.5052 l 1
 219 229 l 1
219 285 m 1
 219 473.495 l 1
 131.933 285 l 1
 219 285 l 1
267 229 m 1
 267 -63.4124 l 1
 313 -163 l 1
 265 -163 l 1
 50 257 l 1
 265 677 l 1
 313 677 l 1
 267 577.412 l 1
 267 285 l 1
 313 285 l 1
 313 229 l 1
 267 229 l 1
EndSplineSet
EndChar

StartChar: barstrokeangbracketright
Encoding: 69 -1 69
Width: 363
Flags: W
HStem: 229 56<51 95 145 226>
VStem: 96 48<45 228 286 461>
LayerCount: 2
Fore
SplineSet
96 -63.4124 m 5
 96 229 l 1
 50 229 l 9
 50 285 l 17
 96 285 l 1
 96 577.412 l 1
 50 677 l 1
 98 677 l 1
 313 257 l 1
 98 -163 l 1
 50 -163 l 1
 96 -63.4124 l 5
144 40.5052 m 1
 231.067 229 l 1
 144 229 l 1
 144 40.5052 l 1
144 473.495 m 1
 144 285 l 1
 231.067 285 l 1
 144 473.495 l 1
EndSplineSet
EndChar

StartChar: bartpl
Encoding: 70 -1 70
Width: 580
Flags: W
VStem: 62 56<-163 677> 262 56<-163 677> 462 56<-163 677>
CounterMasks: 1 00
LayerCount: 2
Fore
SplineSet
318 -163 m 1
 262 -163 l 1
 262 677 l 1
 318 677 l 1
 318 -163 l 1
518 -163 m 1
 462 -163 l 1
 462 677 l 1
 518 677 l 1
 518 -163 l 1
118 -163 m 1
 62 -163 l 1
 62 677 l 1
 118 677 l 1
 118 -163 l 1
EndSplineSet
EndChar

StartChar: shortbartpl
Encoding: 71 -1 71
Width: 600
Flags: MW
HStem: 0 448<73 127 273 327 473 527>
VStem: 72 56<1 447> 128 144<0 448> 272 56<1 447> 328 144<0 448> 472 56<1 447>
LayerCount: 2
Fore
SplineSet
328 0 m 1
 272 0 l 1
 272 448 l 1
 328 448 l 1
 328 0 l 1
528 0 m 1
 472 0 l 1
 472 448 l 1
 528 448 l 5
 528 0 l 1
128 0 m 1
 72 0 l 1
 72 448 l 1
 128 448 l 1
 128 0 l 1
EndSplineSet
EndChar

StartChar: widegg
Encoding: 72 -1 72
Width: 1018
Flags: W
LayerCount: 2
Fore
SplineSet
966 247 m 5
 449 5 l 5
 449 61 l 5
 869 257 l 5
 449 452 l 5
 449 508 l 5
 966 267 l 5
 966 247 l 5
569 247 m 1
 52 5 l 1
 52 61 l 1
 472 257 l 1
 52 452 l 1
 52 508 l 1
 569 267 l 1
 569 247 l 1
EndSplineSet
EndChar

StartChar: hatequals
Encoding: 73 -1 73
Width: 564
Flags: W
HStem: 120 66<31 533> 320 66<31 533>
VStem: 30 504<121 185 321 385>
LayerCount: 2
Fore
SplineSet
534 507 m 1
 500 507 l 1
 282 610 l 1
 64 507 l 1
 30 507 l 1
 251 674 l 1
 313 674 l 1
 534 507 l 1
534 386 m 5
 534 320 l 5
 30 320 l 5
 30 386 l 5
 534 386 l 5
534 186 m 1
 534 120 l 1
 30 120 l 1
 30 186 l 1
 534 186 l 1
EndSplineSet
EndChar

StartChar: bigbox
Encoding: 74 -1 74
Width: 686
Flags: W
HStem: 0 56<69 617> 606 56<69 617>
VStem: 12 56<57 605> 618 56<57 605>
LayerCount: 2
Fore
SplineSet
68 606 m 1
 68 56 l 1
 618 56 l 1
 618 606 l 1
 68 606 l 1
12 662 m 5
 674 662 l 5
 674 0 l 5
 12 0 l 5
 12 662 l 5
EndSplineSet
EndChar

StartChar: bigboxminus
Encoding: 75 -1 75
Width: 686
Flags: W
HStem: 0 56<69 617> 303 56<69 617> 606 56<69 617>
VStem: 12 56<57 302 360 605> 618 56<57 302 360 605>
LayerCount: 2
Fore
SplineSet
12 662 m 1
 674 662 l 1
 674 0 l 1
 12 0 l 1
 12 662 l 1
618 303 m 1
 68 303 l 1
 68 56 l 1
 618 56 l 1
 618 303 l 1
618 359 m 1
 618 606 l 1
 68 606 l 1
 68 359 l 1
 618 359 l 1
EndSplineSet
EndChar

StartChar: bigcircle
Encoding: 76 -1 76
Width: 686
Flags: W
HStem: 0 56<332 364> 606 56.02<332 364>
VStem: 12 56<320 352> 618 56.02<320 352>
LayerCount: 2
Fore
SplineSet
674.02 331.01 m 0
 674.02 148.46 525.56 -0 343.01 -0 c 0
 160.46 -0 12 148.46 12 331.01 c 0
 12 513.56 160.46 662.02 343.01 662.02 c 0
 525.56 662.02 674.02 513.56 674.02 331.01 c 0
618 331 m 4
 618 483 494 606 343 606 c 4
 191 606 68 483 68 331 c 4
 68 179 191 56 343 56 c 4
 494 56 618 179 618 331 c 4
EndSplineSet
EndChar

StartChar: bigcircleminus
Encoding: 77 -1 77
Width: 686
Flags: W
HStem: 0 56<332 364> 303 56<71 604> 606 56.0195<332 364>
VStem: 12 662.02<320 352>
LayerCount: 2
Fore
SplineSet
674.02 331.01 m 0
 674.02 148.46 525.56 -0 343.01 -0 c 0
 160.46 -0 12 148.46 12 331.01 c 0
 12 513.56 160.46 662.02 343.01 662.02 c 0
 525.56 662.02 674.02 513.56 674.02 331.01 c 0
616.585 303 m 1
 69.4046 303 l 1
 83.4111 164.177 200.453 56 343 56 c 0
 484.609 56 602.472 164.177 616.585 303 c 1
69.4046 359 m 1
 616.585 359 l 1
 602.472 497.823 484.609 606 343 606 c 0
 200.453 606 83.4112 497.823 69.4046 359 c 1
EndSplineSet
EndChar

StartChar: bigdiamond
Encoding: 78 -1 78
Width: 686
Flags: W
LayerCount: 2
Fore
SplineSet
91 331 m 1
 343 79 l 1
 595 331 l 1
 343 583 l 1
 91 331 l 1
12 331 m 1
 343 662 l 5
 674 331 l 1
 343 0 l 1
 12 331 l 1
EndSplineSet
EndChar

StartChar: bigdiamondminus
Encoding: 79 -1 79
Width: 686
Flags: W
HStem: 303 56<120 566>
LayerCount: 2
Fore
SplineSet
12 331 m 1
 343 662 l 1
 674 331 l 1
 343 0 l 1
 12 331 l 1
567 303 m 1
 119 303 l 1
 343 79 l 1
 567 303 l 1
119 359 m 1
 567 359 l 1
 343 583 l 1
 119 359 l 1
EndSplineSet
EndChar

StartChar: crossharpoonup
Encoding: 80 -1 80
Width: 499
Flags: W
VStem: 221 56<-161 110 250 545>
LayerCount: 2
Fore
SplineSet
390 362.039 m 5
 429.599 322.441 l 5
 288.177 181.02 l 5
 429.599 39.5986 l 5
 390 0 l 5
 248.579 141.422 l 5
 107.865 0.707031 l 5
 68.2666 40.3057 l 5
 208.981 181.02 l 5
 68.2666 321.733 l 5
 107.865 361.332 l 5
 248.579 220.617 l 5
 390 362.039 l 5
454 457 m 1
 421 426 l 1
 277 546 l 1
 277 -162 l 1
 221 -162 l 1
 221 678 l 1
 454 457 l 1
EndSplineSet
EndChar

StartChar: placeholder
Encoding: 81 -1 81
Width: 620
Flags: W
HStem: -125 50<110 510> -125 125<61 109 511 559>
VStem: 60 50<-74 -1> 510 50<-74 -1>
LayerCount: 2
Fore
SplineSet
110 -75 m 1xb0
 510 -75 l 1xb0
 510 0 l 1
 560 0 l 5
 560 -125 l 1
 60 -125 l 1
 60 0 l 1
 110 0 l 1x70
 110 -75 l 1xb0
EndSplineSet
EndChar

StartChar: queryholder
Encoding: 82 -1 82
Width: 700
Flags: W
HStem: -125 50<111 589> -8 107<336 355> 646 30<322 337> 743 50<111 589>
VStem: 60 50<-74 742> 177 89<510 531> 293 107<35 51> 431 92<509 533> 590 50<-74 742>
LayerCount: 2
Fore
SplineSet
590 743 m 17
 590 -75 l 1
 110 -75 l 5
 110 743 l 13
 590 743 l 17
60 793 m 5
 60 -125 l 5
 640 -125 l 1
 640 793 l 1
 60 793 l 5
353 164 m 1
 336 164 l 1
 337 208 347 257 366 306 c 1
 394 370 l 2
 418 425 431 480 431 526 c 0
 431 593 383 646 323 646 c 0
 274 646 228 616 228 584 c 0
 228 576 233 567 245 553 c 0
 260 536 266 524 266 510 c 0
 266 486 249 469 225 469 c 0
 194 469 177 491 177 531 c 0
 177 614 247 676 339 676 c 0
 393 676 452 653 487 618 c 0
 510 595 523 559 523 521 c 0
 523 480 510 444 478 395 c 0
 464 374 464 374 418 318 c 0
 381 271 364 231 353 164 c 1
346 99 m 0
 375 99 400 74 400 44 c 0
 400 14 377 -8 345 -8 c 0
 315 -8 293 14 293 43 c 0
 293 75 316 99 346 99 c 0
EndSplineSet
EndChar

StartChar: diffmulti
Encoding: 83 -1 83
Width: 654
Flags: W
HStem: 0 51<257 399> 267 91<174 480>
VStem: 62 51<189.5 573> 541 51<189.5 573>
LayerCount: 2
Fore
SplineSet
480 267 m 1
 480 358 l 1
 174 358 l 1
 174 267 l 5
 480 267 l 1
592 264 m 2
 592 115 470 0 328 0 c 0
 186 0 62 115 62 264 c 2
 62 573 l 1
 113 573 l 1
 113 260 l 2
 113 141 212 51 327 51 c 0
 448 51 541 154 541 260 c 2
 541 573 l 1
 592 573 l 1
 592 264 l 2
EndSplineSet
EndChar

StartChar: alternation
Encoding: 84 -1 84
Width: 398
Flags: W
HStem: -14 66<134 264> 610 66<134 264>
VStem: 67 66<53 609> 265 66<53 609>
LayerCount: 2
Fore
SplineSet
67 676 m 1
 331 676 l 1
 331 -14 l 1
 67 -14 l 1
 67 676 l 1
133 610 m 1
 133 52 l 1
 265 52 l 1
 265 610 l 1
 133 610 l 1
EndSplineSet
EndChar

StartChar: smallbar
Encoding: 85 -1 85
Width: 1020
Flags: W
VStem: 62 56<52 462>
LayerCount: 2
Fore
SplineSet
118 52 m 5
 118 462 l 5
 62 462 l 5
 62 52 l 5
 118 52 l 5
EndSplineSet
EndChar

StartChar: spotle
Encoding: 86 -1 86
Width: 675
Flags: W
HStem: -11 111<74 92 586 594> 199 111<74 92 586 594> 409 111<74 92 586 594>
VStem: 27 111<43 54 463 470> 537 111<253 262>
CounterMasks: 1 00
LayerCount: 2
Fore
SplineSet
592 310 m 0
 622 310 648 284 648 253 c 0
 648 223 622 199 590 199 c 0
 562 199 537 224 537 253 c 0
 537 284 562 310 592 310 c 0
82 520 m 0
 112 520 138 494 138 463 c 0
 138 433 112 409 80 409 c 0
 52 409 27 434 27 463 c 0
 27 494 52 520 82 520 c 0
82 100 m 0
 112 100 138 74 138 43 c 0
 138 13 112 -11 80 -11 c 0
 52 -11 27 14 27 43 c 0
 27 74 52 100 82 100 c 0
111.438 207.577 m 1
 102.377 202.144 91.5812 199 80 199 c 0
 52 199 27 224 27 253 c 0
 27 284 52 310 82 310 c 0
 93.6325 310 104.664 306.091 113.811 299.497 c 1
 547.204 495.719 l 1
 557.242 510.315 573.69 520 592 520 c 0
 622 520 648 494 648 463 c 0
 648 433 622 409 590 409 c 0
 575.63 409 562.05 415.585 552.234 425.916 c 1
 172 253 l 1
 550.996 80.647 l 1
 561.129 92.4547 575.839 100 592 100 c 0
 622 100 648 74 648 43 c 0
 648 13 622 -11 590 -11 c 0
 574.083 -11 559.136 -2.92132 549.199 9.37842 c 1
 111.438 207.577 l 1
EndSplineSet
EndChar

StartChar: spotge
Encoding: 87 -1 87
Width: 675
Flags: W
HStem: -11 111<74 92 586 594> 199 111<74 92 586 594> 409 111<74 92 586 594>
VStem: 27 111<253 262> 537 111<43 54 463 470>
CounterMasks: 1 00
LayerCount: 2
Fore
SplineSet
592 520 m 0
 622 520 648 494 648 463 c 0
 648 433 622 409 590 409 c 0
 562 409 537 434 537 463 c 0
 537 494 562 520 592 520 c 0
592 100 m 0
 622 100 648 74 648 43 c 0
 648 13 622 -11 590 -11 c 0
 562 -11 537 14 537 43 c 0
 537 74 562 100 592 100 c 0
82 310 m 0
 112 310 138 284 138 253 c 0
 138 223 112 199 80 199 c 0
 52 199 27 224 27 253 c 0
 27 284 52 310 82 310 c 0
124.55 8.35934 m 1
 113.906 -3.49839 97.8905 -11 80 -11 c 0
 52 -11 27 14 27 43 c 0
 27 74 52 100 82 100 c 0
 98.3745 100 113.557 92.2542 123.971 80.1773 c 1
 504 253 l 1
 122.703 426.399 l 1
 112.097 415.681 96.8837 409 80 409 c 0
 52 409 27 434 27 463 c 0
 27 494 52 520 82 520 c 0
 99.9314 520 116.434 510.711 126.809 496.618 c 1
 561.164 299.961 l 1
 570.003 306.274 580.643 310 592 310 c 0
 622 310 648 284 648 253 c 0
 648 223 622 199 590 199 c 0
 580.413 199 571.177 201.931 563.176 206.95 c 1
 124.55 8.35934 l 1
EndSplineSet
EndChar

StartChar: spoteq
Encoding: 88 -1 88
Width: 675
Flags: W
HStem: 10 66<126 548> 199 111<74 92 586 594> 430 66<126 548>
VStem: 27 111<253 262> 537 111<253 262>
LayerCount: 2
Fore
SplineSet
592 310 m 0
 622 310 648 284 648 253 c 0
 648 223 622 199 590 199 c 0
 562 199 537 224 537 253 c 0
 537 284 562 310 592 310 c 0
82 310 m 0
 112 310 138 284 138 253 c 0
 138 223 112 199 80 199 c 0
 52 199 27 224 27 253 c 0
 27 284 52 310 82 310 c 0
127.258 496 m 1
 547.399 496 l 1
 557.454 510.439 573.808 520 592 520 c 0
 622 520 648 494 648 463 c 0
 648 433 622 409 590 409 c 0
 573.817 409 558.635 417.352 548.704 430 c 1
 125.966 430 l 1
 115.355 417.198 98.7022 409 80 409 c 0
 52 409 27 434 27 463 c 0
 27 494 52 520 82 520 c 0
 100.192 520 116.913 510.439 127.258 496 c 1
127.258 76 m 1
 547.399 76 l 1
 557.454 90.439 573.808 100 592 100 c 0
 622 100 648 74 648 43 c 0
 648 13 622 -11 590 -11 c 0
 573.817 -11 558.635 -2.64842 548.704 10 c 1
 125.966 10 l 1
 115.355 -2.80221 98.7022 -11 80 -11 c 0
 52 -11 27 14 27 43 c 0
 27 74 52 100 82 100 c 0
 100.192 100 116.913 90.439 127.258 76 c 1
EndSplineSet
EndChar

StartChar: sixspots
Encoding: 89 -1 89
Width: 675
Flags: W
HStem: -11 111<74 92 586 594> 199 111<74 92 586 594> 409 111<74 92 586 594>
VStem: 27 111<43 54 253 262 463 470> 537 111<43 54 253 262 463 470>
CounterMasks: 1 00
LayerCount: 2
Fore
SplineSet
592 520 m 0
 622 520 648 494 648 463 c 0
 648 433 622 409 590 409 c 0
 562 409 537 434 537 463 c 0
 537 494 562 520 592 520 c 0
592 310 m 0
 622 310 648 284 648 253 c 0
 648 223 622 199 590 199 c 0
 562 199 537 224 537 253 c 0
 537 284 562 310 592 310 c 0
592 100 m 0
 622 100 648 74 648 43 c 0
 648 13 622 -11 590 -11 c 0
 562 -11 537 14 537 43 c 0
 537 74 562 100 592 100 c 0
82 520 m 0
 112 520 138 494 138 463 c 0
 138 433 112 409 80 409 c 0
 52 409 27 434 27 463 c 0
 27 494 52 520 82 520 c 0
82 310 m 0
 112 310 138 284 138 253 c 0
 138 223 112 199 80 199 c 0
 52 199 27 224 27 253 c 0
 27 284 52 310 82 310 c 0
82 100 m 0
 112 100 138 74 138 43 c 0
 138 13 112 -11 80 -11 c 0
 52 -11 27 14 27 43 c 0
 27 74 52 100 82 100 c 0
EndSplineSet
EndChar

StartChar: zcat
Encoding: 90 -1 90
Width: 658
VWidth: 1444
Flags: W
HStem: 702 58<237.5 420>
LayerCount: 2
Fore
SplineSet
596 610 m 1
 582 600 l 1
 505 687 404 702 328 702 c 0
 252 702 152 687 75 600 c 1
 62 610 l 1
 84 638 146 760 329 760 c 0
 511 760 574 638 596 610 c 1
EndSplineSet
EndChar

StartChar: zcatright
Encoding: 91 -1 91
Width: 658
VWidth: 1444
Flags: W
HStem: 702 58<237.5 397.885>
LayerCount: 2
Fore
SplineSet
571.576 643.969 m 1
 580.203 734.711 l 1
 602.828 735.422 l 1
 600 594 l 1
 457.871 590.465 l 1
 458.578 613.09 l 1
 555.796 626.162 l 1
 555.796 626.162 l 1
 483.092 690.117 395.644 702 328 702 c 0
 252 702 152 687 75 600 c 1
 62 610 l 1
 84 638 146 760 329 760 c 0
 466.77 760 536.351 690.092 571.576 643.969 c 1
EndSplineSet
EndChar

StartChar: zcatleft
Encoding: 92 -1 92
Width: 658
VWidth: 1444
Flags: W
HStem: 702 58<266.943 427.328>
LayerCount: 2
Fore
SplineSet
93.252 643.969 m 5
 84.625 734.711 l 5
 62 735.422 l 5
 64.8281 594 l 5
 206.957 590.465 l 5
 206.25 613.09 l 5
 109.032 626.162 l 5
 181.736 690.117 269.185 702 336.828 702 c 4
 412.828 702 512.828 687 589.828 600 c 5
 602.828 610 l 5
 580.828 638 518.828 760 335.828 760 c 4
 198.059 760 128.478 690.093 93.252 643.969 c 5
EndSplineSet
EndChar

StartChar: outDec
Encoding: 93 -1 93
Width: 482
Flags: W
HStem: 482 56<62 312>
VStem: 62 56<-163 538>
LayerCount: 2
Fore
SplineSet
420 509 m 1
 224 305 l 1
 193 338 l 1
 312 482 l 1
 118 482 l 1
 118 -163 l 1
 62 -163 l 1
 62 538 l 1
 312 538 l 1
 193 682 l 1
 224 715 l 1
 420 509 l 1
EndSplineSet
EndChar

StartChar: inDec
Encoding: 94 -1 94
Width: 550
Flags: W
HStem: 482 56<62 312>
LayerCount: 2
Fore
SplineSet
311 -55 m 1
 455 64 l 1
 488 33 l 5
 284 -163 l 1
 78 33 l 1
 111 64 l 1
 255 -55 l 1
 256 482 l 1
 62 482 l 1
 62 538 l 1
 312 538 l 1
 311 -55 l 1
EndSplineSet
EndChar

StartChar: inDecb
Encoding: 95 -1 95
Width: 426
Flags: W
HStem: 482 56<62 256>
VStem: 308 56<-163 509>
LayerCount: 2
Fore
SplineSet
62 538 m 1
 256 538 l 1
 137 682 l 1
 168 715 l 1
 336.408 538 l 1
 364 538 l 5
 364 509 l 1
 364 -163 l 1
 308 -163 l 1
 308 450.714 l 1
 168 305 l 1
 137 338 l 1
 256 482 l 1
 62 483 l 1
 62 538 l 1
EndSplineSet
EndChar

